<svg width="428" height="926" viewBox="0 0 428 926" fill="none" xmlns="http://www.w3.org/2000/svg">
<path d="M279.597 1042.88C357.087 1034.25 432.06 1010.17 500.088 972.072L214.985 462.989L279.597 1042.88Z" fill="#5D46B9"/>
<path d="M500.949 971.593C568.913 933.38 628.529 881.934 676.274 820.293L214.987 462.991L500.949 971.593Z" fill="#684FCF"/>
<path d="M678.147 817.868C725.569 755.977 760.105 685.21 779.716 609.747L214.991 462.992L678.147 817.868Z" fill="#5F4CAE"/>
<path d="M779.77 609.548C799.355 534.078 803.614 455.449 792.298 378.305L214.995 462.99L779.77 609.548Z" fill="#6E56CF" fill-opacity="0.9"/>
<path d="M792.417 379.125C781.211 301.965 754.653 227.834 714.313 161.111L214.994 462.99L792.417 379.125Z" fill="#5C47B2"/>
<path d="M712.368 157.913C671.602 91.4496 617.928 33.8314 554.517 -11.5381L214.997 462.989L712.368 157.913Z" fill="#6E56CF"/>
<path d="M552.807 -12.7523C489.235 -57.894 417.259 -89.8365 341.134 -106.693L214.992 462.991L552.807 -12.7523Z" fill="#7762CF"/>
<path d="M340.149 -106.909C263.995 -123.634 185.26 -124.926 108.598 -110.709L214.99 462.991L340.149 -106.909Z" fill="#5F48BB"/>
<path d="M106.907 -110.392C30.2865 -95.95 -42.6621 -66.2977 -107.629 -23.1871L214.986 462.992L106.907 -110.392Z" fill="#5E49B1"/>
<path d="M-110.532 -21.2512C-175.24 22.2474 -230.574 78.2737 -273.264 143.518L214.987 462.988L-110.532 -21.2512Z" fill="#6953C1"/>
<path d="M-274.948 146.114C-317.291 211.584 -346.084 284.876 -359.624 361.661L214.993 462.987L-274.948 146.114Z" fill="#5541A4"/>
<path d="M-360.267 365.386C-373.309 442.258 -370.813 520.963 -352.925 596.853L214.993 462.989L-360.267 365.386Z" fill="#806ADB" fill-opacity="0.66"/>
<path d="M-351.602 602.315C-332.984 678.029 -299.38 749.244 -252.776 811.752L215.001 462.99L-351.602 602.315Z" fill="#6C56C2"/>
<path d="M-251.272 813.765C-204.398 876.072 -145.513 928.352 -78.0934 967.517L214.998 462.99L-251.272 813.765Z" fill="#59489C"/>
<path d="M-74.8884 969.367C-7.22206 1008.1 67.5217 1032.89 144.927 1042.25L214.995 462.989L-74.8884 969.367Z" fill="#6350B3"/>
<path d="M115.388 1037.9C170.942 1047.53 227.597 1049.05 283.588 1042.43L215 462.989L115.388 1037.9Z" fill="#503CA3"/>
</svg>
